<?xml version="1.0" encoding="UTF-8"?><svg xmlns="http://www.w3.org/2000/svg" xmlns:xlink="http://www.w3.org/1999/xlink" fill-opacity="1" color-rendering="auto" color-interpolation="auto" text-rendering="auto" stroke="black" stroke-linecap="square" width="790" stroke-miterlimit="10" shape-rendering="auto" stroke-opacity="1" fill="black" stroke-dasharray="none" font-weight="normal" stroke-width="1" height="1000" font-family="'Dialog'" font-style="normal" stroke-linejoin="miter" font-size="12px" stroke-dashoffset="0" image-rendering="auto">
  <!--Generated by ySVG 2.5-->
  <defs id="genericDefs"/>
  <g>
    <defs id="defs1">
      <clipPath clipPathUnits="userSpaceOnUse" id="clipPath1">
        <path d="M0 0 L790 0 L790 1000 L0 1000 L0 0 Z"/>
      </clipPath>
      <clipPath clipPathUnits="userSpaceOnUse" id="clipPath2">
        <path d="M-25 10 L370 10 L370 510 L-25 510 L-25 10 Z"/>
      </clipPath>
    </defs>
    <g fill="white" text-rendering="geometricPrecision" shape-rendering="geometricPrecision" transform="scale(2,2) translate(25,-10)" stroke="white">
      <rect x="-25" width="395" height="500" y="10" clip-path="url(#clipPath2)" stroke="none"/>
    </g>
    <g fill="rgb(235,235,235)" text-rendering="geometricPrecision" shape-rendering="geometricPrecision" transform="matrix(2,0,0,2,50,-20)" stroke="rgb(235,235,235)">
      <rect x="-25" width="395" height="65" y="445" clip-path="url(#clipPath2)" stroke="none"/>
      <rect x="-25" y="335" clip-path="url(#clipPath2)" fill="rgb(240,240,240)" width="395" height="110" stroke="none"/>
      <rect x="-25" y="190" clip-path="url(#clipPath2)" fill="rgb(245,245,245)" width="395" height="145" stroke="none"/>
      <rect x="-25" y="10" clip-path="url(#clipPath2)" fill="rgb(250,250,250)" width="395" height="180" stroke="none"/>
      <rect x="-20" y="195" clip-path="url(#clipPath2)" fill="white" width="180" height="40" stroke="none"/>
    </g>
    <g text-rendering="geometricPrecision" stroke-miterlimit="1.45" shape-rendering="geometricPrecision" transform="matrix(2,0,0,2,50,-20)" stroke-linecap="butt">
      <rect fill="none" x="-20" width="180" height="40" y="195" clip-path="url(#clipPath2)"/>
      <text x="7.1772" font-size="13px" y="212.4641" clip-path="url(#clipPath2)" font-family="'Times New Roman'" stroke="none" xml:space="preserve">387 (47%) Patients met </text>
      <text x="0.8645" font-size="13px" y="226.8606" clip-path="url(#clipPath2)" font-family="'Times New Roman'" stroke="none" xml:space="preserve">the study inclusion criteria</text>
    </g>
    <g fill="white" text-rendering="geometricPrecision" shape-rendering="geometricPrecision" transform="matrix(2,0,0,2,50,-20)" stroke="white">
      <rect x="50" width="315" height="25" y="245" clip-path="url(#clipPath2)" stroke="none"/>
    </g>
    <g text-rendering="geometricPrecision" stroke-miterlimit="1.45" shape-rendering="geometricPrecision" transform="matrix(2,0,0,2,50,-20)" stroke-linecap="butt">
      <rect fill="none" x="50" width="315" height="25" y="245" clip-path="url(#clipPath2)"/>
      <text x="58.6982" font-size="13px" y="262.1624" clip-path="url(#clipPath2)" font-family="'Times New Roman'" stroke="none" xml:space="preserve">10 (2.6%) Patients had &lt;2 Cr measurements prior to AKI</text>
    </g>
    <g fill="white" text-rendering="geometricPrecision" shape-rendering="geometricPrecision" transform="matrix(2,0,0,2,50,-20)" stroke="white">
      <rect x="-20" width="180" height="40" y="280" clip-path="url(#clipPath2)" stroke="none"/>
    </g>
    <g text-rendering="geometricPrecision" stroke-miterlimit="1.45" shape-rendering="geometricPrecision" transform="matrix(2,0,0,2,50,-20)" stroke-linecap="butt">
      <rect fill="none" x="-20" width="180" height="40" y="280" clip-path="url(#clipPath2)"/>
      <text x="4.2891" font-size="13px" y="297.4641" clip-path="url(#clipPath2)" font-family="'Times New Roman'" stroke="none" xml:space="preserve">377 (97.4%) Patients had</text>
      <text x="16.2512" font-size="13px" y="311.8606" clip-path="url(#clipPath2)" font-family="'Times New Roman'" stroke="none" xml:space="preserve">≥2 Cr measurements</text>
    </g>
    <g fill="white" text-rendering="geometricPrecision" shape-rendering="geometricPrecision" transform="matrix(2,0,0,2,50,-20)" stroke="white">
      <rect x="-20" width="180" height="25" y="15" clip-path="url(#clipPath2)" stroke="none"/>
    </g>
    <g text-rendering="geometricPrecision" stroke-miterlimit="1.45" shape-rendering="geometricPrecision" transform="matrix(2,0,0,2,50,-20)" stroke-linecap="butt">
      <rect fill="none" x="-20" width="180" height="25" y="15" clip-path="url(#clipPath2)"/>
      <text x="12.5981" font-size="13px" y="32.1624" clip-path="url(#clipPath2)" font-family="'Times New Roman'" stroke="none" xml:space="preserve">830 Patients Screened</text>
    </g>
    <g fill="white" text-rendering="geometricPrecision" shape-rendering="geometricPrecision" transform="matrix(2,0,0,2,50,-20)" stroke="white">
      <rect x="77.5" width="260" height="25" y="50" clip-path="url(#clipPath2)" stroke="none"/>
    </g>
    <g text-rendering="geometricPrecision" stroke-miterlimit="1.45" shape-rendering="geometricPrecision" transform="matrix(2,0,0,2,50,-20)" stroke-linecap="butt">
      <rect fill="none" x="77.5" width="260" height="25" y="50" clip-path="url(#clipPath2)"/>
      <text x="116.5286" font-size="13px" y="67.1624" clip-path="url(#clipPath2)" font-family="'Times New Roman'" stroke="none" xml:space="preserve">443 (53%) Patients were excluded:</text>
    </g>
    <g fill="white" text-rendering="geometricPrecision" shape-rendering="geometricPrecision" transform="matrix(2,0,0,2,50,-20)" stroke="white">
      <rect x="77.5" width="45" height="110" y="75" clip-path="url(#clipPath2)" stroke="none"/>
    </g>
    <g text-rendering="geometricPrecision" stroke-miterlimit="1.45" shape-rendering="geometricPrecision" transform="matrix(2,0,0,2,50,-20)" stroke-linecap="butt">
      <rect fill="none" x="77.5" width="45" height="110" y="75" clip-path="url(#clipPath2)"/>
      <text x="90.25" font-size="13px" y="91.4729" clip-path="url(#clipPath2)" font-family="'Times New Roman'" stroke="none" xml:space="preserve">208</text>
      <text x="96.75" font-size="13px" y="105.8694" clip-path="url(#clipPath2)" font-family="'Times New Roman'" stroke="none" xml:space="preserve">91</text>
      <text x="96.75" font-size="13px" y="120.2659" clip-path="url(#clipPath2)" font-family="'Times New Roman'" stroke="none" xml:space="preserve">87</text>
      <text x="96.75" font-size="13px" y="134.6624" clip-path="url(#clipPath2)" font-family="'Times New Roman'" stroke="none" xml:space="preserve">30</text>
      <text x="96.75" font-size="13px" y="149.0588" clip-path="url(#clipPath2)" font-family="'Times New Roman'" stroke="none" xml:space="preserve">17</text>
      <text x="100" font-size="13px" y="163.4553" clip-path="url(#clipPath2)" font-family="'Times New Roman'" stroke="none" xml:space="preserve"> 9</text>
      <text x="100" font-size="13px" y="177.8518" clip-path="url(#clipPath2)" font-family="'Times New Roman'" stroke="none" xml:space="preserve"> 1</text>
    </g>
    <g fill="white" text-rendering="geometricPrecision" shape-rendering="geometricPrecision" transform="matrix(2,0,0,2,50,-20)" stroke="white">
      <rect x="122.5" width="55" height="110" y="75" clip-path="url(#clipPath2)" stroke="none"/>
    </g>
    <g text-rendering="geometricPrecision" stroke-miterlimit="1.45" shape-rendering="geometricPrecision" transform="matrix(2,0,0,2,50,-20)" stroke-linecap="butt">
      <rect fill="none" x="122.5" width="55" height="110" y="75" clip-path="url(#clipPath2)"/>
      <text x="133.7563" font-size="13px" y="91.4729" clip-path="url(#clipPath2)" font-family="'Times New Roman'" stroke="none" xml:space="preserve">(47%)</text>
      <text x="133.7563" font-size="13px" y="105.8694" clip-path="url(#clipPath2)" font-family="'Times New Roman'" stroke="none" xml:space="preserve">(21%)</text>
      <text x="133.7563" font-size="13px" y="120.2659" clip-path="url(#clipPath2)" font-family="'Times New Roman'" stroke="none" xml:space="preserve">(20%)</text>
      <text x="137.0063" font-size="13px" y="134.6624" clip-path="url(#clipPath2)" font-family="'Times New Roman'" stroke="none" xml:space="preserve">(7%)</text>
      <text x="137.0063" font-size="13px" y="149.0588" clip-path="url(#clipPath2)" font-family="'Times New Roman'" stroke="none" xml:space="preserve">(4%)</text>
      <text x="137.0063" font-size="13px" y="163.4553" clip-path="url(#clipPath2)" font-family="'Times New Roman'" stroke="none" xml:space="preserve">(2%)</text>
      <text x="137.0063" font-size="13px" y="177.8518" clip-path="url(#clipPath2)" font-family="'Times New Roman'" stroke="none" xml:space="preserve">(1%)</text>
    </g>
    <g fill="white" text-rendering="geometricPrecision" shape-rendering="geometricPrecision" transform="matrix(2,0,0,2,50,-20)" stroke="white">
      <rect x="177.5" width="160" height="110" y="75" clip-path="url(#clipPath2)" stroke="none"/>
    </g>
    <g text-rendering="geometricPrecision" stroke-miterlimit="1.45" shape-rendering="geometricPrecision" transform="matrix(2,0,0,2,50,-20)" stroke-linecap="butt">
      <rect fill="none" x="177.5" width="160" height="110" y="75" clip-path="url(#clipPath2)"/>
      <text x="192.884" font-size="13px" y="91.4729" clip-path="url(#clipPath2)" font-family="'Times New Roman'" stroke="none" xml:space="preserve">AKI on ICU admission</text>
      <text x="192.884" font-size="13px" y="105.8694" clip-path="url(#clipPath2)" font-family="'Times New Roman'" stroke="none" xml:space="preserve">weekend admission</text>
      <text x="192.884" font-size="13px" y="120.2659" clip-path="url(#clipPath2)" font-family="'Times New Roman'" stroke="none" xml:space="preserve">no indwelling catheter</text>
      <text x="192.884" font-size="13px" y="134.6624" clip-path="url(#clipPath2)" font-family="'Times New Roman'" stroke="none" xml:space="preserve">end-stage kidney disease</text>
      <text x="192.884" font-size="13px" y="149.0588" clip-path="url(#clipPath2)" font-family="'Times New Roman'" stroke="none" xml:space="preserve">end-of-life care</text>
      <text x="192.884" font-size="13px" y="163.4553" clip-path="url(#clipPath2)" font-family="'Times New Roman'" stroke="none" xml:space="preserve">kidney transplant</text>
      <text x="192.884" font-size="13px" y="177.8518" clip-path="url(#clipPath2)" font-family="'Times New Roman'" stroke="none" xml:space="preserve">child</text>
    </g>
    <g fill="white" text-rendering="geometricPrecision" shape-rendering="geometricPrecision" transform="matrix(2,0,0,2,50,-20)" stroke="white">
      <rect x="-20" width="180" height="40" y="350" clip-path="url(#clipPath2)" stroke="none"/>
    </g>
    <g text-rendering="geometricPrecision" stroke-miterlimit="1.45" shape-rendering="geometricPrecision" transform="matrix(2,0,0,2,50,-20)" stroke-linecap="butt">
      <rect fill="none" x="-20" width="180" height="40" y="350" clip-path="url(#clipPath2)"/>
      <text x="8.4436" font-size="13px" y="367.4641" clip-path="url(#clipPath2)" font-family="'Times New Roman'" stroke="none" xml:space="preserve">6,938 Cr measurements</text>
      <text x="-3.29" font-size="13px" y="381.8606" clip-path="url(#clipPath2)" font-family="'Times New Roman'" stroke="none" xml:space="preserve">183,672 Cr change episodes</text>
    </g>
    <g fill="white" text-rendering="geometricPrecision" shape-rendering="geometricPrecision" transform="matrix(2,0,0,2,50,-20)" stroke="white">
      <rect x="50" width="315" height="40" y="400" clip-path="url(#clipPath2)" stroke="none"/>
    </g>
    <g text-rendering="geometricPrecision" stroke-miterlimit="1.45" shape-rendering="geometricPrecision" transform="matrix(2,0,0,2,50,-20)" stroke-linecap="butt">
      <rect fill="none" x="50" width="315" height="40" y="400" clip-path="url(#clipPath2)"/>
      <text x="74.2976" font-size="13px" y="417.4641" clip-path="url(#clipPath2)" font-family="'Times New Roman'" stroke="none" xml:space="preserve">3,703 (53.4%) Cr measurements occured after AKI</text>
      <text x="60.3994" font-size="13px" y="431.8606" clip-path="url(#clipPath2)" font-family="'Times New Roman'" stroke="none" xml:space="preserve">133,498 (72.7%) Cr change episodes occurred after AKI</text>
    </g>
    <g fill="white" text-rendering="geometricPrecision" shape-rendering="geometricPrecision" transform="matrix(2,0,0,2,50,-20)" stroke="white">
      <rect x="-20" width="180" height="55" y="450" clip-path="url(#clipPath2)" stroke="none"/>
    </g>
    <g text-rendering="geometricPrecision" stroke-miterlimit="1.45" shape-rendering="geometricPrecision" transform="matrix(2,0,0,2,50,-20)" stroke-linecap="butt">
      <rect fill="none" x="-20" width="180" height="55" y="450" clip-path="url(#clipPath2)"/>
      <text x="-3.125" font-size="13px" y="467.7659" clip-path="url(#clipPath2)" font-family="'Times New Roman'" stroke="none" xml:space="preserve">Final Analysis: 377 Patients</text>
      <text x="6.8186" font-size="13px" y="482.1624" clip-path="url(#clipPath2)" font-family="'Times New Roman'" stroke="none" xml:space="preserve">3,235 Cr measurements </text>
      <text x="-0.04" font-size="13px" y="496.5588" clip-path="url(#clipPath2)" font-family="'Times New Roman'" stroke="none" xml:space="preserve">50,174 Cr change episodes</text>
      <path fill="none" d="M20 257.5 L42 257.5" clip-path="url(#clipPath2)"/>
      <path d="M50 257.5 L38 252.5 L41 257.5 L38 262.5 Z" clip-path="url(#clipPath2)" stroke="none"/>
      <path fill="none" d="M20 235 L20 271.9889" clip-path="url(#clipPath2)"/>
      <path d="M20 279.9889 L25 267.9889 L20 270.9889 L15 267.9889 Z" clip-path="url(#clipPath2)" stroke="none"/>
      <path fill="none" d="M20 40 L20 186.9622" clip-path="url(#clipPath2)"/>
      <path d="M20 194.9622 L25 182.9622 L20 185.9622 L15 182.9622 Z" clip-path="url(#clipPath2)" stroke="none"/>
      <path fill="none" d="M20 62.5 L69.5 62.5" clip-path="url(#clipPath2)"/>
      <path d="M77.5 62.5 L65.5 57.5 L68.5 62.5 L65.5 67.5 Z" clip-path="url(#clipPath2)" stroke="none"/>
      <path fill="none" d="M20 320 L20 341.9707" clip-path="url(#clipPath2)"/>
      <path d="M20 349.9707 L25 337.9707 L20 340.9707 L15 337.9707 Z" clip-path="url(#clipPath2)" stroke="none"/>
      <path fill="none" d="M20 420 L42 420" clip-path="url(#clipPath2)"/>
      <path d="M50 420 L38 415 L41 420 L38 425 Z" clip-path="url(#clipPath2)" stroke="none"/>
      <path fill="none" d="M20 390 L20 439.9617" clip-path="url(#clipPath2)"/>
      <path d="M20 447.9617 L25 435.9617 L20 438.9617 L15 435.9617 Z" clip-path="url(#clipPath2)" stroke="none"/>
    </g>
  </g>
</svg>
