<?xml version="1.0" encoding="UTF-8"?><svg xmlns="http://www.w3.org/2000/svg" xmlns:xlink="http://www.w3.org/1999/xlink" fill-opacity="1" color-rendering="auto" color-interpolation="auto" text-rendering="auto" stroke="black" stroke-linecap="square" width="1305" stroke-miterlimit="10" shape-rendering="auto" stroke-opacity="1" fill="black" stroke-dasharray="none" font-weight="normal" stroke-width="1" height="1605" font-family="'Dialog'" font-style="normal" stroke-linejoin="miter" font-size="12px" stroke-dashoffset="0" image-rendering="auto">
  <!--Generated by ySVG 2.5-->
  <defs id="genericDefs"/>
  <g>
    <defs id="defs1">
      <clipPath clipPathUnits="userSpaceOnUse" id="clipPath1">
        <path d="M0 0 L1305 0 L1305 1605 L0 1605 L0 0 Z"/>
      </clipPath>
      <clipPath clipPathUnits="userSpaceOnUse" id="clipPath2">
        <path d="M-25 10 L410 10 L410 545 L-25 545 L-25 10 Z"/>
      </clipPath>
    </defs>
    <g fill="white" text-rendering="geometricPrecision" shape-rendering="geometricPrecision" transform="scale(3,3) translate(25,-10)" stroke="white">
      <rect x="-25" width="435" height="535" y="10" clip-path="url(#clipPath2)" stroke="none"/>
    </g>
    <g fill="rgb(240,240,240)" text-rendering="geometricPrecision" shape-rendering="geometricPrecision" transform="matrix(3,0,0,3,75,-30)" stroke="rgb(240,240,240)">
      <rect x="-25" width="435" height="145" y="335" clip-path="url(#clipPath2)" stroke="none"/>
      <rect x="-25" y="190" clip-path="url(#clipPath2)" fill="rgb(245,245,245)" width="435" height="145" stroke="none"/>
      <rect x="-25" y="10" clip-path="url(#clipPath2)" fill="rgb(250,250,250)" width="435" height="180" stroke="none"/>
      <rect x="-20" y="195" clip-path="url(#clipPath2)" fill="white" width="180" height="40" stroke="none"/>
    </g>
    <g text-rendering="geometricPrecision" stroke-miterlimit="1.45" shape-rendering="geometricPrecision" transform="matrix(3,0,0,3,75,-30)" stroke-linecap="butt">
      <rect fill="none" x="-20" width="180" height="40" y="195" clip-path="url(#clipPath2)"/>
      <text x="0.271" font-size="13px" y="212.4578" clip-path="url(#clipPath2)" font-family="'Arial'" stroke="none" xml:space="preserve">387 (47%) Patients met </text>
      <text x="-4.7849" font-size="13px" y="226.9812" clip-path="url(#clipPath2)" font-family="'Arial'" stroke="none" xml:space="preserve">the study inclusion criteria</text>
    </g>
    <g fill="white" text-rendering="geometricPrecision" shape-rendering="geometricPrecision" transform="matrix(3,0,0,3,75,-30)" stroke="white">
      <rect x="50" width="355" height="25" y="245" clip-path="url(#clipPath2)" stroke="none"/>
    </g>
    <g text-rendering="geometricPrecision" stroke-miterlimit="1.45" shape-rendering="geometricPrecision" transform="matrix(3,0,0,3,75,-30)" stroke-linecap="butt">
      <rect fill="none" x="50" width="355" height="25" y="245" clip-path="url(#clipPath2)"/>
      <text x="62.5752" font-size="13px" y="262.2195" clip-path="url(#clipPath2)" font-family="'Arial'" stroke="none" xml:space="preserve">10 (2.6%) Patients had &lt; 2 Cr measurements prior to AKI</text>
    </g>
    <g fill="white" text-rendering="geometricPrecision" shape-rendering="geometricPrecision" transform="matrix(3,0,0,3,75,-30)" stroke="white">
      <rect x="-20" width="180" height="40" y="280" clip-path="url(#clipPath2)" stroke="none"/>
    </g>
    <g text-rendering="geometricPrecision" stroke-miterlimit="1.45" shape-rendering="geometricPrecision" transform="matrix(3,0,0,3,75,-30)" stroke-linecap="butt">
      <rect fill="none" x="-20" width="180" height="40" y="280" clip-path="url(#clipPath2)"/>
      <text x="-3.3535" font-size="13px" y="297.4578" clip-path="url(#clipPath2)" font-family="'Arial'" stroke="none" xml:space="preserve">377 (97.4%) Patients had</text>
      <text x="7.5518" font-size="13px" y="311.9812" clip-path="url(#clipPath2)" font-family="'Arial'" stroke="none" xml:space="preserve">≥ 2 Cr measurements</text>
    </g>
    <g fill="white" text-rendering="geometricPrecision" shape-rendering="geometricPrecision" transform="matrix(3,0,0,3,75,-30)" stroke="white">
      <rect x="-20" width="180" height="25" y="15" clip-path="url(#clipPath2)" stroke="none"/>
    </g>
    <g text-rendering="geometricPrecision" stroke-miterlimit="1.45" shape-rendering="geometricPrecision" transform="matrix(3,0,0,3,75,-30)" stroke-linecap="butt">
      <rect fill="none" x="-20" width="180" height="25" y="15" clip-path="url(#clipPath2)"/>
      <text x="4.2319" font-size="13px" y="32.2195" clip-path="url(#clipPath2)" font-family="'Arial'" stroke="none" xml:space="preserve">830 Patients Screened</text>
    </g>
    <g fill="white" text-rendering="geometricPrecision" shape-rendering="geometricPrecision" transform="matrix(3,0,0,3,75,-30)" stroke="white">
      <rect x="77.5" width="260" height="25" y="50" clip-path="url(#clipPath2)" stroke="none"/>
    </g>
    <g text-rendering="geometricPrecision" stroke-miterlimit="1.45" shape-rendering="geometricPrecision" transform="matrix(3,0,0,3,75,-30)" stroke-linecap="butt">
      <rect fill="none" x="77.5" width="260" height="25" y="50" clip-path="url(#clipPath2)"/>
      <text x="106.6929" font-size="13px" y="67.2195" clip-path="url(#clipPath2)" font-family="'Arial'" stroke="none" xml:space="preserve">443 (53%) Patients were excluded:</text>
    </g>
    <g fill="white" text-rendering="geometricPrecision" shape-rendering="geometricPrecision" transform="matrix(3,0,0,3,75,-30)" stroke="white">
      <rect x="77.5" width="45" height="110" y="75" clip-path="url(#clipPath2)" stroke="none"/>
    </g>
    <g text-rendering="geometricPrecision" stroke-miterlimit="1.45" shape-rendering="geometricPrecision" transform="matrix(3,0,0,3,75,-30)" stroke-linecap="butt">
      <rect fill="none" x="77.5" width="45" height="110" y="75" clip-path="url(#clipPath2)"/>
      <text x="89.155" font-size="13px" y="91.1492" clip-path="url(#clipPath2)" font-family="'Arial'" stroke="none" xml:space="preserve">208</text>
      <text x="96.385" font-size="13px" y="105.6726" clip-path="url(#clipPath2)" font-family="'Arial'" stroke="none" xml:space="preserve">91</text>
      <text x="96.385" font-size="13px" y="120.196" clip-path="url(#clipPath2)" font-family="'Arial'" stroke="none" xml:space="preserve">87</text>
      <text x="96.385" font-size="13px" y="134.7195" clip-path="url(#clipPath2)" font-family="'Arial'" stroke="none" xml:space="preserve">30</text>
      <text x="96.385" font-size="13px" y="149.2429" clip-path="url(#clipPath2)" font-family="'Arial'" stroke="none" xml:space="preserve">17</text>
      <text x="100.0032" font-size="13px" y="163.7664" clip-path="url(#clipPath2)" font-family="'Arial'" stroke="none" xml:space="preserve"> 9</text>
      <text x="100.0032" font-size="13px" y="178.2898" clip-path="url(#clipPath2)" font-family="'Arial'" stroke="none" xml:space="preserve"> 1</text>
    </g>
    <g fill="white" text-rendering="geometricPrecision" shape-rendering="geometricPrecision" transform="matrix(3,0,0,3,75,-30)" stroke="white">
      <rect x="122.5" width="55" height="110" y="75" clip-path="url(#clipPath2)" stroke="none"/>
    </g>
    <g text-rendering="geometricPrecision" stroke-miterlimit="1.45" shape-rendering="geometricPrecision" transform="matrix(3,0,0,3,75,-30)" stroke-linecap="butt">
      <rect fill="none" x="122.5" width="55" height="110" y="75" clip-path="url(#clipPath2)"/>
      <text x="132.6614" font-size="13px" y="91.1492" clip-path="url(#clipPath2)" font-family="'Arial'" stroke="none" xml:space="preserve">(47%)</text>
      <text x="132.6614" font-size="13px" y="105.6726" clip-path="url(#clipPath2)" font-family="'Arial'" stroke="none" xml:space="preserve">(21%)</text>
      <text x="132.6614" font-size="13px" y="120.196" clip-path="url(#clipPath2)" font-family="'Arial'" stroke="none" xml:space="preserve">(20%)</text>
      <text x="136.2764" font-size="13px" y="134.7195" clip-path="url(#clipPath2)" font-family="'Arial'" stroke="none" xml:space="preserve">(7%)</text>
      <text x="136.2764" font-size="13px" y="149.2429" clip-path="url(#clipPath2)" font-family="'Arial'" stroke="none" xml:space="preserve">(4%)</text>
      <text x="136.2764" font-size="13px" y="163.7664" clip-path="url(#clipPath2)" font-family="'Arial'" stroke="none" xml:space="preserve">(2%)</text>
      <text x="136.2764" font-size="13px" y="178.2898" clip-path="url(#clipPath2)" font-family="'Arial'" stroke="none" xml:space="preserve">(1%)</text>
    </g>
    <g fill="white" text-rendering="geometricPrecision" shape-rendering="geometricPrecision" transform="matrix(3,0,0,3,75,-30)" stroke="white">
      <rect x="177.5" width="160" height="110" y="75" clip-path="url(#clipPath2)" stroke="none"/>
    </g>
    <g text-rendering="geometricPrecision" stroke-miterlimit="1.45" shape-rendering="geometricPrecision" transform="matrix(3,0,0,3,75,-30)" stroke-linecap="butt">
      <rect fill="none" x="177.5" width="160" height="110" y="75" clip-path="url(#clipPath2)"/>
      <text x="183.7847" font-size="13px" y="91.1492" clip-path="url(#clipPath2)" font-family="'Arial'" stroke="none" xml:space="preserve">AKI on ICU admission</text>
      <text x="183.7847" font-size="13px" y="105.6726" clip-path="url(#clipPath2)" font-family="'Arial'" stroke="none" xml:space="preserve">weekend admission</text>
      <text x="183.7847" font-size="13px" y="120.196" clip-path="url(#clipPath2)" font-family="'Arial'" stroke="none" xml:space="preserve">no indwelling catheter</text>
      <text x="183.7847" font-size="13px" y="134.7195" clip-path="url(#clipPath2)" font-family="'Arial'" stroke="none" xml:space="preserve">end-stage kidney disease</text>
      <text x="183.7847" font-size="13px" y="149.2429" clip-path="url(#clipPath2)" font-family="'Arial'" stroke="none" xml:space="preserve">end-of-life care</text>
      <text x="183.7847" font-size="13px" y="163.7664" clip-path="url(#clipPath2)" font-family="'Arial'" stroke="none" xml:space="preserve">kidney transplant</text>
      <text x="183.7847" font-size="13px" y="178.2898" clip-path="url(#clipPath2)" font-family="'Arial'" stroke="none" xml:space="preserve">child</text>
    </g>
    <g fill="white" text-rendering="geometricPrecision" shape-rendering="geometricPrecision" transform="matrix(3,0,0,3,75,-30)" stroke="white">
      <rect x="-20" width="180" height="40" y="350" clip-path="url(#clipPath2)" stroke="none"/>
    </g>
    <g text-rendering="geometricPrecision" stroke-miterlimit="1.45" shape-rendering="geometricPrecision" transform="matrix(3,0,0,3,75,-30)" stroke-linecap="butt">
      <rect fill="none" x="-20" width="180" height="40" y="350" clip-path="url(#clipPath2)"/>
      <text x="0.2742" font-size="13px" y="367.4578" clip-path="url(#clipPath2)" font-family="'Arial'" stroke="none" xml:space="preserve">6,938 Cr measurements</text>
      <text x="-13.1162" font-size="13px" y="381.9812" clip-path="url(#clipPath2)" font-family="'Arial'" stroke="none" xml:space="preserve">183,672 Cr change episodes</text>
    </g>
    <g fill="white" text-rendering="geometricPrecision" shape-rendering="geometricPrecision" transform="matrix(3,0,0,3,75,-30)" stroke="white">
      <rect x="50" width="355" height="40" y="400" clip-path="url(#clipPath2)" stroke="none"/>
    </g>
    <g text-rendering="geometricPrecision" stroke-miterlimit="1.45" shape-rendering="geometricPrecision" transform="matrix(3,0,0,3,75,-30)" stroke-linecap="butt">
      <rect fill="none" x="50" width="355" height="40" y="400" clip-path="url(#clipPath2)"/>
      <text x="81.1833" font-size="13px" y="417.4578" clip-path="url(#clipPath2)" font-family="'Arial'" stroke="none" xml:space="preserve">3,703 (53.4%) Cr measurements occured after AKI</text>
      <text x="65.6284" font-size="13px" y="431.9812" clip-path="url(#clipPath2)" font-family="'Arial'" stroke="none" xml:space="preserve">133,498 (72.7%) Cr change episodes occurred after AKI</text>
    </g>
    <g fill="rgb(235,235,235)" text-rendering="geometricPrecision" shape-rendering="geometricPrecision" transform="matrix(3,0,0,3,75,-30)" stroke="rgb(235,235,235)">
      <rect x="-25" width="435" height="65" y="480" clip-path="url(#clipPath2)" stroke="none"/>
      <rect x="-20" y="485" clip-path="url(#clipPath2)" fill="white" width="180" height="55" stroke="none"/>
    </g>
    <g text-rendering="geometricPrecision" stroke-miterlimit="1.45" shape-rendering="geometricPrecision" transform="matrix(3,0,0,3,75,-30)" stroke-linecap="butt">
      <rect fill="none" x="-20" width="180" height="55" y="485" clip-path="url(#clipPath2)"/>
      <text x="-9.8472" font-size="13px" y="502.696" clip-path="url(#clipPath2)" font-family="'Arial'" stroke="none" xml:space="preserve">Final Analysis: 377 Patients</text>
      <text x="-1.5317" font-size="13px" y="517.2195" clip-path="url(#clipPath2)" font-family="'Arial'" stroke="none" xml:space="preserve">3,235 Cr measurements </text>
      <text x="-9.5012" font-size="13px" y="531.7429" clip-path="url(#clipPath2)" font-family="'Arial'" stroke="none" xml:space="preserve">15,075 Cr change episodes</text>
    </g>
    <g fill="white" text-rendering="geometricPrecision" shape-rendering="geometricPrecision" transform="matrix(3,0,0,3,75,-30)" stroke="white">
      <rect x="50" width="355" height="25" y="450" clip-path="url(#clipPath2)" stroke="none"/>
    </g>
    <g text-rendering="geometricPrecision" stroke-miterlimit="1.45" shape-rendering="geometricPrecision" transform="matrix(3,0,0,3,75,-30)" stroke-linecap="butt">
      <rect fill="none" x="50" width="355" height="25" y="450" clip-path="url(#clipPath2)"/>
      <text x="58.208" font-size="13px" y="467.2195" clip-path="url(#clipPath2)" font-family="'Arial'" stroke="none" xml:space="preserve">35,099 (19.1%) Cr change episodes of duration &gt; 24 hours</text>
      <path fill="none" d="M20 257.5 L42 257.5" clip-path="url(#clipPath2)"/>
      <path d="M50 257.5 L38 252.5 L41 257.5 L38 262.5 Z" clip-path="url(#clipPath2)" stroke="none"/>
      <path fill="none" d="M20 235 L20 271.9561" clip-path="url(#clipPath2)"/>
      <path d="M20 279.9561 L25 267.9561 L20 270.9561 L15 267.9561 Z" clip-path="url(#clipPath2)" stroke="none"/>
      <path fill="none" d="M20 40 L20 186.9622" clip-path="url(#clipPath2)"/>
      <path d="M20 194.9622 L25 182.9622 L20 185.9622 L15 182.9622 Z" clip-path="url(#clipPath2)" stroke="none"/>
      <path fill="none" d="M20 62.5 L69.5 62.5" clip-path="url(#clipPath2)"/>
      <path d="M77.5 62.5 L65.5 57.5 L68.5 62.5 L65.5 67.5 Z" clip-path="url(#clipPath2)" stroke="none"/>
      <path fill="none" d="M20 320 L20 341.9707" clip-path="url(#clipPath2)"/>
      <path d="M20 349.9707 L25 337.9707 L20 340.9707 L15 337.9707 Z" clip-path="url(#clipPath2)" stroke="none"/>
      <path fill="none" d="M20 420 L42 420" clip-path="url(#clipPath2)"/>
      <path d="M50 420 L38 415 L41 420 L38 425 Z" clip-path="url(#clipPath2)" stroke="none"/>
      <path fill="none" d="M20 390 L20 474.5" clip-path="url(#clipPath2)"/>
      <path d="M20 482.5 L25 470.5 L20 473.5 L15 470.5 Z" clip-path="url(#clipPath2)" stroke="none"/>
      <path fill="none" d="M20 462.5 L42 462.5" clip-path="url(#clipPath2)"/>
      <path d="M50 462.5 L38 457.5 L41 462.5 L38 467.5 Z" clip-path="url(#clipPath2)" stroke="none"/>
    </g>
  </g>
</svg>
