<?xml version="1.0" encoding="UTF-8"?><svg xmlns="http://www.w3.org/2000/svg" xmlns:xlink="http://www.w3.org/1999/xlink" fill-opacity="1" color-rendering="auto" color-interpolation="auto" text-rendering="auto" stroke="black" stroke-linecap="square" width="420" stroke-miterlimit="10" shape-rendering="auto" stroke-opacity="1" fill="black" stroke-dasharray="none" font-weight="normal" stroke-width="1" height="885" font-family="'Dialog'" font-style="normal" stroke-linejoin="miter" font-size="12px" stroke-dashoffset="0" image-rendering="auto">
  <!--Generated by ySVG 2.5-->
  <defs id="genericDefs"/>
  <g>
    <defs id="defs1">
      <clipPath clipPathUnits="userSpaceOnUse" id="clipPath1">
        <path d="M0 0 L420 0 L420 885 L0 885 L0 0 Z"/>
      </clipPath>
      <clipPath clipPathUnits="userSpaceOnUse" id="clipPath2">
        <path d="M-45 -25 L375 -25 L375 860 L-45 860 L-45 -25 Z"/>
      </clipPath>
    </defs>
    <g fill="white" text-rendering="geometricPrecision" shape-rendering="geometricPrecision" transform="translate(45,25)" stroke="white">
      <rect x="-45" width="420" height="885" y="-25" clip-path="url(#clipPath2)" stroke="none"/>
    </g>
    <g fill="rgb(235,235,235)" text-rendering="geometricPrecision" shape-rendering="geometricPrecision" transform="matrix(1,0,0,1,45,25)" stroke="rgb(235,235,235)">
      <rect x="-30" width="390" height="310" y="535" clip-path="url(#clipPath2)" stroke="none"/>
      <rect x="-30" y="350" clip-path="url(#clipPath2)" fill="rgb(240,240,240)" width="390" height="185" stroke="none"/>
      <rect x="-30" y="240" clip-path="url(#clipPath2)" fill="rgb(245,245,245)" width="390" height="110" stroke="none"/>
      <rect x="-30" y="-10" clip-path="url(#clipPath2)" fill="rgb(250,250,250)" width="390" height="250" stroke="none"/>
      <rect x="-20" y="0" clip-path="url(#clipPath2)" fill="white" width="180" height="40" stroke="none"/>
    </g>
    <g text-rendering="geometricPrecision" stroke-miterlimit="1.45" shape-rendering="geometricPrecision" transform="matrix(1,0,0,1,45,25)" stroke-linecap="butt">
      <rect fill="none" x="-20" width="180" height="40" y="0" clip-path="url(#clipPath2)"/>
      <text x="9.291" xml:space="preserve" y="17.3633" clip-path="url(#clipPath2)" font-family="sans-serif" stroke="none">830 Patients Screened</text>
      <text x="9.2998" xml:space="preserve" y="32.0645" clip-path="url(#clipPath2)" font-family="sans-serif" stroke="none">(05 Feb 18 - 16 Jul 18)</text>
    </g>
    <g fill="white" text-rendering="geometricPrecision" shape-rendering="geometricPrecision" transform="matrix(1,0,0,1,45,25)" stroke="white">
      <rect x="-20" width="180" height="40" y="195" clip-path="url(#clipPath2)" stroke="none"/>
    </g>
    <g text-rendering="geometricPrecision" stroke-miterlimit="1.45" shape-rendering="geometricPrecision" transform="matrix(1,0,0,1,45,25)" stroke-linecap="butt">
      <rect fill="none" x="-20" width="180" height="40" y="195" clip-path="url(#clipPath2)"/>
      <text x="5.6348" xml:space="preserve" y="212.3633" clip-path="url(#clipPath2)" font-family="sans-serif" stroke="none">387 (47%) Patients met </text>
      <text x="0.9678" xml:space="preserve" y="227.0645" clip-path="url(#clipPath2)" font-family="sans-serif" stroke="none">the study inclusion criteria</text>
    </g>
    <g fill="white" text-rendering="geometricPrecision" shape-rendering="geometricPrecision" transform="matrix(1,0,0,1,45,25)" stroke="white">
      <rect x="90" width="45" height="110" y="75" clip-path="url(#clipPath2)" stroke="none"/>
    </g>
    <g text-rendering="geometricPrecision" stroke-miterlimit="1.45" shape-rendering="geometricPrecision" transform="matrix(1,0,0,1,45,25)" stroke-linecap="butt">
      <rect fill="none" x="90" width="45" height="110" y="75" clip-path="url(#clipPath2)"/>
      <text x="102.4893" xml:space="preserve" y="90.6104" clip-path="url(#clipPath2)" font-family="sans-serif" stroke="none">208</text>
      <text x="109.1631" xml:space="preserve" y="105.3115" clip-path="url(#clipPath2)" font-family="sans-serif" stroke="none">91</text>
      <text x="109.1631" xml:space="preserve" y="120.0127" clip-path="url(#clipPath2)" font-family="sans-serif" stroke="none">87</text>
      <text x="109.1631" xml:space="preserve" y="134.7139" clip-path="url(#clipPath2)" font-family="sans-serif" stroke="none">30</text>
      <text x="109.1631" xml:space="preserve" y="149.415" clip-path="url(#clipPath2)" font-family="sans-serif" stroke="none">17</text>
      <text x="112.5029" xml:space="preserve" y="164.1162" clip-path="url(#clipPath2)" font-family="sans-serif" stroke="none"> 9</text>
      <text x="112.5029" xml:space="preserve" y="178.8174" clip-path="url(#clipPath2)" font-family="sans-serif" stroke="none"> 1</text>
    </g>
    <g fill="white" text-rendering="geometricPrecision" shape-rendering="geometricPrecision" transform="matrix(1,0,0,1,45,25)" stroke="white">
      <rect x="135" width="55" height="110" y="75" clip-path="url(#clipPath2)" stroke="none"/>
    </g>
    <g text-rendering="geometricPrecision" stroke-miterlimit="1.45" shape-rendering="geometricPrecision" transform="matrix(1,0,0,1,45,25)" stroke-linecap="butt">
      <rect fill="none" x="135" width="55" height="110" y="75" clip-path="url(#clipPath2)"/>
      <text x="146.4951" xml:space="preserve" y="90.6104" clip-path="url(#clipPath2)" font-family="sans-serif" stroke="none">(47%)</text>
      <text x="146.4951" xml:space="preserve" y="105.3115" clip-path="url(#clipPath2)" font-family="sans-serif" stroke="none">(21%)</text>
      <text x="146.4951" xml:space="preserve" y="120.0127" clip-path="url(#clipPath2)" font-family="sans-serif" stroke="none">(20%)</text>
      <text x="149.832" xml:space="preserve" y="134.7139" clip-path="url(#clipPath2)" font-family="sans-serif" stroke="none">(7%)</text>
      <text x="149.832" xml:space="preserve" y="149.415" clip-path="url(#clipPath2)" font-family="sans-serif" stroke="none">(4%)</text>
      <text x="149.832" xml:space="preserve" y="164.1162" clip-path="url(#clipPath2)" font-family="sans-serif" stroke="none">(2%)</text>
      <text x="149.832" xml:space="preserve" y="178.8174" clip-path="url(#clipPath2)" font-family="sans-serif" stroke="none">(1%)</text>
    </g>
    <g fill="white" text-rendering="geometricPrecision" shape-rendering="geometricPrecision" transform="matrix(1,0,0,1,45,25)" stroke="white">
      <rect x="190" width="160" height="110" y="75" clip-path="url(#clipPath2)" stroke="none"/>
    </g>
    <g text-rendering="geometricPrecision" stroke-miterlimit="1.45" shape-rendering="geometricPrecision" transform="matrix(1,0,0,1,45,25)" stroke-linecap="butt">
      <rect fill="none" x="190" width="160" height="110" y="75" clip-path="url(#clipPath2)"/>
      <text x="201.9551" xml:space="preserve" y="90.6104" clip-path="url(#clipPath2)" font-family="sans-serif" stroke="none">AKI on ICU admission</text>
      <text x="201.9551" xml:space="preserve" y="105.3115" clip-path="url(#clipPath2)" font-family="sans-serif" stroke="none">weekend admission</text>
      <text x="201.9551" xml:space="preserve" y="120.0127" clip-path="url(#clipPath2)" font-family="sans-serif" stroke="none">no indwelling catheter</text>
      <text x="201.9551" xml:space="preserve" y="134.7139" clip-path="url(#clipPath2)" font-family="sans-serif" stroke="none">end-stage kidney disease</text>
      <text x="201.9551" xml:space="preserve" y="149.415" clip-path="url(#clipPath2)" font-family="sans-serif" stroke="none">end-of-life care</text>
      <text x="201.9551" xml:space="preserve" y="164.1162" clip-path="url(#clipPath2)" font-family="sans-serif" stroke="none">kidney transplant</text>
      <text x="201.9551" xml:space="preserve" y="178.8174" clip-path="url(#clipPath2)" font-family="sans-serif" stroke="none">child</text>
    </g>
    <g fill="white" text-rendering="geometricPrecision" shape-rendering="geometricPrecision" transform="matrix(1,0,0,1,45,25)" stroke="white">
      <rect x="90" width="260" height="25" y="50" clip-path="url(#clipPath2)" stroke="none"/>
    </g>
    <g text-rendering="geometricPrecision" stroke-miterlimit="1.45" shape-rendering="geometricPrecision" transform="matrix(1,0,0,1,45,25)" stroke-linecap="butt">
      <rect fill="none" x="90" width="260" height="25" y="50" clip-path="url(#clipPath2)"/>
      <text x="126.9473" xml:space="preserve" y="67.2139" clip-path="url(#clipPath2)" font-family="sans-serif" stroke="none">443 (53%) Patients were excluded:</text>
    </g>
    <g fill="white" text-rendering="geometricPrecision" shape-rendering="geometricPrecision" transform="matrix(1,0,0,1,45,25)" stroke="white">
      <rect x="90" width="260" height="40" y="245" clip-path="url(#clipPath2)" stroke="none"/>
    </g>
    <g text-rendering="geometricPrecision" stroke-miterlimit="1.45" shape-rendering="geometricPrecision" transform="matrix(1,0,0,1,45,25)" stroke-linecap="butt">
      <rect fill="none" x="90" width="260" height="40" y="245" clip-path="url(#clipPath2)"/>
      <text x="142.9551" xml:space="preserve" y="262.3633" clip-path="url(#clipPath2)" font-family="sans-serif" stroke="none">3 (4%) Patients did not have </text>
      <text x="118.293" xml:space="preserve" y="277.0645" clip-path="url(#clipPath2)" font-family="sans-serif" stroke="none">sufficient number of Cr measurements</text>
    </g>
    <g fill="white" text-rendering="geometricPrecision" shape-rendering="geometricPrecision" transform="matrix(1,0,0,1,45,25)" stroke="white">
      <rect x="-20" width="180" height="40" y="295" clip-path="url(#clipPath2)" stroke="none"/>
    </g>
    <g text-rendering="geometricPrecision" stroke-miterlimit="1.45" shape-rendering="geometricPrecision" transform="matrix(1,0,0,1,45,25)" stroke-linecap="butt">
      <rect fill="none" x="-20" width="180" height="40" y="295" clip-path="url(#clipPath2)"/>
      <text x="7.293" xml:space="preserve" y="312.3633" clip-path="url(#clipPath2)" font-family="sans-serif" stroke="none">384 (46%) Patients had</text>
      <text x="-3.0254" xml:space="preserve" y="327.0645" clip-path="url(#clipPath2)" font-family="sans-serif" stroke="none">sufficient Cr measurements</text>
    </g>
    <g fill="white" text-rendering="geometricPrecision" shape-rendering="geometricPrecision" transform="matrix(1,0,0,1,45,25)" stroke="white">
      <rect x="-20" width="180" height="40" y="365" clip-path="url(#clipPath2)" stroke="none"/>
    </g>
    <g text-rendering="geometricPrecision" stroke-miterlimit="1.45" shape-rendering="geometricPrecision" transform="matrix(1,0,0,1,45,25)" stroke-linecap="butt">
      <rect fill="none" x="-20" width="180" height="40" y="365" clip-path="url(#clipPath2)"/>
      <text x="5.6377" xml:space="preserve" y="382.3633" clip-path="url(#clipPath2)" font-family="sans-serif" stroke="none">8,817 Cr measurements</text>
      <text x="-6.7227" xml:space="preserve" y="397.0645" clip-path="url(#clipPath2)" font-family="sans-serif" stroke="none">251,652 Cr change episodes</text>
    </g>
    <g fill="white" text-rendering="geometricPrecision" shape-rendering="geometricPrecision" transform="matrix(1,0,0,1,45,25)" stroke="white">
      <rect x="90" width="260" height="55" y="615" clip-path="url(#clipPath2)" stroke="none"/>
    </g>
    <g text-rendering="geometricPrecision" stroke-miterlimit="1.45" shape-rendering="geometricPrecision" transform="matrix(1,0,0,1,45,25)" stroke-linecap="butt">
      <rect fill="none" x="90" width="260" height="55" y="615" clip-path="url(#clipPath2)"/>
      <text x="129.6162" xml:space="preserve" y="632.5127" clip-path="url(#clipPath2)" font-family="sans-serif" stroke="none">Exclude Cr change episodes with:</text>
      <text x="113.292" xml:space="preserve" y="647.2139" clip-path="url(#clipPath2)" font-family="sans-serif" stroke="none">Duration &lt; C hrs or Duration &gt; D hrs; or </text>
      <text x="117.6309" xml:space="preserve" y="661.915" clip-path="url(#clipPath2)" font-family="sans-serif" stroke="none">Time to AKI &lt; K hrs or Time to AKI &gt; L</text>
    </g>
    <g fill="white" text-rendering="geometricPrecision" shape-rendering="geometricPrecision" transform="matrix(1,0,0,1,45,25)" stroke="white">
      <rect x="-20" width="180" height="55" y="550" clip-path="url(#clipPath2)" stroke="none"/>
    </g>
    <g text-rendering="geometricPrecision" stroke-miterlimit="1.45" shape-rendering="geometricPrecision" transform="matrix(1,0,0,1,45,25)" stroke-linecap="butt">
      <rect fill="none" x="-20" width="180" height="55" y="550" clip-path="url(#clipPath2)"/>
      <text x="-12.3623" xml:space="preserve" y="567.5127" clip-path="url(#clipPath2)" font-family="sans-serif" stroke="none">Inclusion criteria for Cr ch epis.</text>
      <text x="13.8789" xml:space="preserve" y="582.2139" clip-path="url(#clipPath2)" font-family="sans-serif" stroke="none">Duration ⊆ [C, D] hrs</text>
      <text x="6.543" xml:space="preserve" y="596.915" clip-path="url(#clipPath2)" font-family="sans-serif" stroke="none">Time to AKI ⊆ [K, L] hrs</text>
    </g>
    <g fill="white" text-rendering="geometricPrecision" shape-rendering="geometricPrecision" transform="matrix(1,0,0,1,45,25)" stroke="white">
      <rect x="90" width="260" height="40" y="415" clip-path="url(#clipPath2)" stroke="none"/>
    </g>
    <g text-rendering="geometricPrecision" stroke-miterlimit="1.45" shape-rendering="geometricPrecision" transform="matrix(1,0,0,1,45,25)" stroke-linecap="butt">
      <rect fill="none" x="90" width="260" height="40" y="415" clip-path="url(#clipPath2)"/>
      <text x="107.6143" xml:space="preserve" y="432.3633" clip-path="url(#clipPath2)" font-family="sans-serif" stroke="none">4,857 Cr measurements occured after AKI</text>
      <text x="95.2539" xml:space="preserve" y="447.0645" clip-path="url(#clipPath2)" font-family="sans-serif" stroke="none">180,153 Cr change episodes occured after AKI</text>
    </g>
    <g fill="white" text-rendering="geometricPrecision" shape-rendering="geometricPrecision" transform="matrix(1,0,0,1,45,25)" stroke="white">
      <rect x="-20" width="180" height="55" y="465" clip-path="url(#clipPath2)" stroke="none"/>
    </g>
    <g text-rendering="geometricPrecision" stroke-miterlimit="1.45" shape-rendering="geometricPrecision" transform="matrix(1,0,0,1,45,25)" stroke-linecap="butt">
      <rect fill="none" x="-20" width="180" height="55" y="465" clip-path="url(#clipPath2)"/>
      <text x="-13.3936" xml:space="preserve" y="482.5127" clip-path="url(#clipPath2)" font-family="sans-serif" stroke="none">Baseline: 384 patients who had</text>
      <text x="-6.6992" xml:space="preserve" y="497.2139" clip-path="url(#clipPath2)" font-family="sans-serif" stroke="none">3,960 Cr measurements with</text>
      <text x="-3.3857" xml:space="preserve" y="511.915" clip-path="url(#clipPath2)" font-family="sans-serif" stroke="none">71,499 Cr change episodes</text>
    </g>
    <g fill="white" text-rendering="geometricPrecision" shape-rendering="geometricPrecision" transform="matrix(1,0,0,1,45,25)" stroke="white">
      <rect x="-20" width="180" height="40" y="680" clip-path="url(#clipPath2)" stroke="none"/>
    </g>
    <g text-rendering="geometricPrecision" stroke-miterlimit="1.45" shape-rendering="geometricPrecision" transform="matrix(1,0,0,1,45,25)" stroke-linecap="butt">
      <rect fill="none" x="-20" width="180" height="40" y="680" clip-path="url(#clipPath2)"/>
      <text x="-6.6992" xml:space="preserve" y="697.3633" clip-path="url(#clipPath2)" font-family="sans-serif" stroke="none">Analysis: Predictive power of</text>
      <text x="-13.0391" xml:space="preserve" y="712.0645" clip-path="url(#clipPath2)" font-family="sans-serif" stroke="none">Cr ch epis for AKI development</text>
    </g>
    <g fill="white" text-rendering="geometricPrecision" shape-rendering="geometricPrecision" transform="matrix(1,0,0,1,45,25)" stroke="white">
      <rect x="90" width="260" height="40" y="730" clip-path="url(#clipPath2)" stroke="none"/>
    </g>
    <g text-rendering="geometricPrecision" stroke-miterlimit="1.45" shape-rendering="geometricPrecision" transform="matrix(1,0,0,1,45,25)" stroke-linecap="butt">
      <rect fill="none" x="90" width="260" height="40" y="730" clip-path="url(#clipPath2)"/>
      <text x="131.9453" xml:space="preserve" y="747.3633" clip-path="url(#clipPath2)" font-family="sans-serif" stroke="none">Exclude Cr change episodes that</text>
      <text x="146.2891" xml:space="preserve" y="762.0645" clip-path="url(#clipPath2)" font-family="sans-serif" stroke="none">predict no AKI development</text>
    </g>
    <g fill="white" text-rendering="geometricPrecision" shape-rendering="geometricPrecision" transform="matrix(1,0,0,1,45,25)" stroke="white">
      <rect x="-20" width="180" height="55" y="780" clip-path="url(#clipPath2)" stroke="none"/>
    </g>
    <g text-rendering="geometricPrecision" stroke-miterlimit="1.45" shape-rendering="geometricPrecision" transform="matrix(1,0,0,1,45,25)" stroke-linecap="butt">
      <rect fill="none" x="-20" width="180" height="55" y="780" clip-path="url(#clipPath2)"/>
      <text x="-6.6992" xml:space="preserve" y="797.5127" clip-path="url(#clipPath2)" font-family="sans-serif" stroke="none">Analysis: Predictive power of</text>
      <text x="6.9795" xml:space="preserve" y="812.2139" clip-path="url(#clipPath2)" font-family="sans-serif" stroke="none">Cr ch epis for time until </text>
      <text x="24.3057" xml:space="preserve" y="826.915" clip-path="url(#clipPath2)" font-family="sans-serif" stroke="none">AKI development</text>
      <path fill="none" d="M70 40 L70 187" clip-path="url(#clipPath2)"/>
      <path d="M70 195 L75 183 L70 186 L65 183 Z" clip-path="url(#clipPath2)" stroke="none"/>
      <path fill="none" d="M70 40 L70 62.5 L82 62.5" clip-path="url(#clipPath2)"/>
      <path d="M90 62.5 L78 57.5 L81 62.5 L78 67.5 Z" clip-path="url(#clipPath2)" stroke="none"/>
      <path fill="none" d="M70 235 L70 265 L82 265" clip-path="url(#clipPath2)"/>
      <path d="M90 265 L78 260 L81 265 L78 270 Z" clip-path="url(#clipPath2)" stroke="none"/>
      <path fill="none" d="M70 235 L70 287" clip-path="url(#clipPath2)"/>
      <path d="M70 295 L75 283 L70 286 L65 283 Z" clip-path="url(#clipPath2)" stroke="none"/>
      <path fill="none" d="M70 335 L70 357" clip-path="url(#clipPath2)"/>
      <path d="M70 365 L75 353 L70 356 L65 353 Z" clip-path="url(#clipPath2)" stroke="none"/>
      <path fill="none" d="M70 605 L70 642.5 L82 642.5" clip-path="url(#clipPath2)"/>
      <path d="M90 642.5 L78 637.5 L81 642.5 L78 647.5 Z" clip-path="url(#clipPath2)" stroke="none"/>
      <path fill="none" d="M70 405 L70 435 L82 435" clip-path="url(#clipPath2)"/>
      <path d="M90 435 L78 430 L81 435 L78 440 Z" clip-path="url(#clipPath2)" stroke="none"/>
      <path fill="none" d="M70 405 L70 457" clip-path="url(#clipPath2)"/>
      <path d="M70 465 L75 453 L70 456 L65 453 Z" clip-path="url(#clipPath2)" stroke="none"/>
      <path fill="none" d="M70 520 L70 542" clip-path="url(#clipPath2)"/>
      <path d="M70 550 L75 538 L70 541 L65 538 Z" clip-path="url(#clipPath2)" stroke="none"/>
      <path fill="none" d="M70 605 L70 672" clip-path="url(#clipPath2)"/>
      <path d="M70 680 L75 668 L70 671 L65 668 Z" clip-path="url(#clipPath2)" stroke="none"/>
      <path fill="none" d="M70 720 L70 750 L82 750" clip-path="url(#clipPath2)"/>
      <path d="M90 750 L78 745 L81 750 L78 755 Z" clip-path="url(#clipPath2)" stroke="none"/>
      <path fill="none" d="M70 720 L70 772" clip-path="url(#clipPath2)"/>
      <path d="M70 780 L75 768 L70 771 L65 768 Z" clip-path="url(#clipPath2)" stroke="none"/>
    </g>
  </g>
</svg>
