<?xml version="1.0" encoding="UTF-8"?><svg xmlns="http://www.w3.org/2000/svg" xmlns:xlink="http://www.w3.org/1999/xlink" fill-opacity="1" color-rendering="auto" color-interpolation="auto" text-rendering="auto" stroke="black" stroke-linecap="square" width="400" stroke-miterlimit="10" shape-rendering="auto" stroke-opacity="1" fill="black" stroke-dasharray="none" font-weight="normal" stroke-width="1" height="560" font-family="'Dialog'" font-style="normal" stroke-linejoin="miter" font-size="12px" stroke-dashoffset="0" image-rendering="auto">
  <!--Generated by ySVG 2.5-->
  <defs id="genericDefs"/>
  <g>
    <defs id="defs1">
      <clipPath clipPathUnits="userSpaceOnUse" id="clipPath1">
        <path d="M0 0 L400 0 L400 560 L0 560 L0 0 Z"/>
      </clipPath>
      <clipPath clipPathUnits="userSpaceOnUse" id="clipPath2">
        <path d="M-35 -15 L365 -15 L365 545 L-35 545 L-35 -15 Z"/>
      </clipPath>
    </defs>
    <g fill="white" text-rendering="geometricPrecision" shape-rendering="geometricPrecision" transform="translate(35,15)" stroke="white">
      <rect x="-35" width="400" height="560" y="-15" clip-path="url(#clipPath2)" stroke="none"/>
    </g>
    <g text-rendering="geometricPrecision" stroke-miterlimit="1.45" shape-rendering="geometricPrecision" transform="matrix(1,0,0,1,35,15)" stroke-linecap="butt">
      <rect fill="none" x="-20" width="180" height="40" y="0" clip-path="url(#clipPath2)"/>
      <text x="9.291" xml:space="preserve" y="17.3633" clip-path="url(#clipPath2)" font-family="sans-serif" stroke="none">830 Patients Screened</text>
      <text x="9.2998" xml:space="preserve" y="32.0645" clip-path="url(#clipPath2)" font-family="sans-serif" stroke="none">(05 Feb 18 - 16 Jul 18)</text>
      <rect fill="none" x="-20" width="180" height="40" y="195" clip-path="url(#clipPath2)"/>
      <text x="5.6348" xml:space="preserve" y="212.3633" clip-path="url(#clipPath2)" font-family="sans-serif" stroke="none">387 (47%) Patients met </text>
      <text x="0.9678" xml:space="preserve" y="227.0645" clip-path="url(#clipPath2)" font-family="sans-serif" stroke="none">the study inclusion criteria</text>
      <rect fill="none" x="90" width="45" height="110" y="75" clip-path="url(#clipPath2)"/>
      <text x="102.4893" xml:space="preserve" y="90.6104" clip-path="url(#clipPath2)" font-family="sans-serif" stroke="none">208</text>
      <text x="109.1631" xml:space="preserve" y="105.3115" clip-path="url(#clipPath2)" font-family="sans-serif" stroke="none">91</text>
      <text x="109.1631" xml:space="preserve" y="120.0127" clip-path="url(#clipPath2)" font-family="sans-serif" stroke="none">87</text>
      <text x="109.1631" xml:space="preserve" y="134.7139" clip-path="url(#clipPath2)" font-family="sans-serif" stroke="none">30</text>
      <text x="109.1631" xml:space="preserve" y="149.415" clip-path="url(#clipPath2)" font-family="sans-serif" stroke="none">17</text>
      <text x="112.5029" xml:space="preserve" y="164.1162" clip-path="url(#clipPath2)" font-family="sans-serif" stroke="none"> 9</text>
      <text x="112.5029" xml:space="preserve" y="178.8174" clip-path="url(#clipPath2)" font-family="sans-serif" stroke="none"> 1</text>
      <rect fill="none" x="135" width="55" height="110" y="75" clip-path="url(#clipPath2)"/>
      <text x="146.4951" xml:space="preserve" y="90.6104" clip-path="url(#clipPath2)" font-family="sans-serif" stroke="none">(47%)</text>
      <text x="146.4951" xml:space="preserve" y="105.3115" clip-path="url(#clipPath2)" font-family="sans-serif" stroke="none">(21%)</text>
      <text x="146.4951" xml:space="preserve" y="120.0127" clip-path="url(#clipPath2)" font-family="sans-serif" stroke="none">(20%)</text>
      <text x="149.832" xml:space="preserve" y="134.7139" clip-path="url(#clipPath2)" font-family="sans-serif" stroke="none">(7%)</text>
      <text x="149.832" xml:space="preserve" y="149.415" clip-path="url(#clipPath2)" font-family="sans-serif" stroke="none">(4%)</text>
      <text x="149.832" xml:space="preserve" y="164.1162" clip-path="url(#clipPath2)" font-family="sans-serif" stroke="none">(2%)</text>
      <text x="149.832" xml:space="preserve" y="178.8174" clip-path="url(#clipPath2)" font-family="sans-serif" stroke="none">(1%)</text>
      <rect fill="none" x="190" width="160" height="110" y="75" clip-path="url(#clipPath2)"/>
      <text x="201.9551" xml:space="preserve" y="90.6104" clip-path="url(#clipPath2)" font-family="sans-serif" stroke="none">AKI on ICU admission</text>
      <text x="201.9551" xml:space="preserve" y="105.3115" clip-path="url(#clipPath2)" font-family="sans-serif" stroke="none">weekend admission</text>
      <text x="201.9551" xml:space="preserve" y="120.0127" clip-path="url(#clipPath2)" font-family="sans-serif" stroke="none">no indwelling catheter</text>
      <text x="201.9551" xml:space="preserve" y="134.7139" clip-path="url(#clipPath2)" font-family="sans-serif" stroke="none">end-stage kidney disease</text>
      <text x="201.9551" xml:space="preserve" y="149.415" clip-path="url(#clipPath2)" font-family="sans-serif" stroke="none">end-of-life care</text>
      <text x="201.9551" xml:space="preserve" y="164.1162" clip-path="url(#clipPath2)" font-family="sans-serif" stroke="none">kidney transplant</text>
      <text x="201.9551" xml:space="preserve" y="178.8174" clip-path="url(#clipPath2)" font-family="sans-serif" stroke="none">child</text>
      <rect fill="none" x="90" width="260" height="25" y="50" clip-path="url(#clipPath2)"/>
      <text x="126.9473" xml:space="preserve" y="67.2139" clip-path="url(#clipPath2)" font-family="sans-serif" stroke="none">443 (53%) Patients were excluded:</text>
      <rect fill="none" x="90" width="260" height="40" y="245" clip-path="url(#clipPath2)"/>
      <text x="142.9551" xml:space="preserve" y="262.3633" clip-path="url(#clipPath2)" font-family="sans-serif" stroke="none">3 (4%) Patients did not have </text>
      <text x="118.293" xml:space="preserve" y="277.0645" clip-path="url(#clipPath2)" font-family="sans-serif" stroke="none">sufficient number of Cr measurements</text>
      <rect fill="none" x="-20" width="180" height="40" y="295" clip-path="url(#clipPath2)"/>
      <text x="7.293" xml:space="preserve" y="312.3633" clip-path="url(#clipPath2)" font-family="sans-serif" stroke="none">384 (46%) Patients had</text>
      <text x="-3.0254" xml:space="preserve" y="327.0645" clip-path="url(#clipPath2)" font-family="sans-serif" stroke="none">sufficient Cr measurements</text>
      <rect fill="none" x="-20" width="180" height="40" y="375" clip-path="url(#clipPath2)"/>
      <text x="5.6377" xml:space="preserve" y="392.3633" clip-path="url(#clipPath2)" font-family="sans-serif" stroke="none">8,817 Cr measurements</text>
      <text x="-6.7227" xml:space="preserve" y="407.0645" clip-path="url(#clipPath2)" font-family="sans-serif" stroke="none">251,652 Cr change episodes</text>
      <rect fill="none" x="90" width="260" height="40" y="425" clip-path="url(#clipPath2)"/>
      <text x="107.6143" xml:space="preserve" y="442.3633" clip-path="url(#clipPath2)" font-family="sans-serif" stroke="none">4,857 Cr measurements occured after AKI</text>
      <text x="95.2539" xml:space="preserve" y="457.0645" clip-path="url(#clipPath2)" font-family="sans-serif" stroke="none">180,153 Cr change episodes occured after AKI</text>
      <rect fill="none" x="-20" width="180" height="55" y="475" clip-path="url(#clipPath2)"/>
      <text x="-13.3936" xml:space="preserve" y="492.5127" clip-path="url(#clipPath2)" font-family="sans-serif" stroke="none">Analysed 384 patients who had</text>
      <text x="-6.6992" xml:space="preserve" y="507.2139" clip-path="url(#clipPath2)" font-family="sans-serif" stroke="none">3,960 Cr measurements with</text>
      <text x="-3.3857" xml:space="preserve" y="521.915" clip-path="url(#clipPath2)" font-family="sans-serif" stroke="none">71,499 Cr change episodes</text>
      <path fill="none" d="M70 40 L70 187" clip-path="url(#clipPath2)"/>
      <path d="M70 195 L75 183 L70 186 L65 183 Z" clip-path="url(#clipPath2)" stroke="none"/>
      <path fill="none" d="M70 40 L70 62.5 L82 62.5" clip-path="url(#clipPath2)"/>
      <path d="M90 62.5 L78 57.5 L81 62.5 L78 67.5 Z" clip-path="url(#clipPath2)" stroke="none"/>
      <path fill="none" d="M70 235 L70 265 L82 265" clip-path="url(#clipPath2)"/>
      <path d="M90 265 L78 260 L81 265 L78 270 Z" clip-path="url(#clipPath2)" stroke="none"/>
      <path fill="none" d="M70 235 L70 287" clip-path="url(#clipPath2)"/>
      <path d="M70 295 L75 283 L70 286 L65 283 Z" clip-path="url(#clipPath2)" stroke="none"/>
      <path fill="none" d="M70 335 L70 367" clip-path="url(#clipPath2)"/>
      <path d="M70 375 L75 363 L70 366 L65 363 Z" clip-path="url(#clipPath2)" stroke="none"/>
      <path fill="none" d="M70 415 L70 445 L82 445" clip-path="url(#clipPath2)"/>
      <path d="M90 445 L78 440 L81 445 L78 450 Z" clip-path="url(#clipPath2)" stroke="none"/>
      <path fill="none" d="M70 415 L70 467" clip-path="url(#clipPath2)"/>
      <path d="M70 475 L75 463 L70 466 L65 463 Z" clip-path="url(#clipPath2)" stroke="none"/>
    </g>
  </g>
</svg>
